<svg xmlns="http://www.w3.org/2000/svg" viewBox="0 0 64 64">
  <rect width="64" height="64" rx="12" fill="#21262B"/>
  <path fill="#F7F6F2" d="M11.613333333333333 26.0V7.079999999999998H15.023333333333333V9.536666666666665H15.206666666666667Q15.646666666666667 8.326666666666668 16.471666666666668 7.483333333333334Q17.296666666666667 6.640000000000001 18.836666666666666 6.640000000000001Q20.34 6.640000000000001 21.165 7.465Q21.990000000000002 8.29 22.21 9.719999999999999H22.35666666666667Q22.869999999999997 8.436666666666667 23.786666666666665 7.538333333333334Q24.703333333333333 6.640000000000001 26.426666666666666 6.640000000000001Q28.626666666666665 6.640000000000001 29.488333333333333 8.18Q30.35 9.719999999999999 30.35 12.69V26.0H26.94V13.203333333333333Q26.94 11.223333333333333 26.46333333333333 10.471666666666666Q25.986666666666665 9.719999999999999 24.923333333333332 9.719999999999999Q23.97 9.719999999999999 23.328333333333333 10.361666666666666Q22.686666666666667 11.003333333333334 22.686666666666667 12.286666666666667V26.0H19.276666666666667V13.203333333333333Q19.276666666666667 11.223333333333333 18.818333333333335 10.471666666666666Q18.36 9.719999999999999 17.296666666666667 9.719999999999999Q16.306666666666665 9.719999999999999 15.665 10.361666666666666Q15.023333333333333 11.003333333333334 15.023333333333333 12.286666666666667V26.0Z M34.86 22.773333333333333H40.91V10.306666666666667H34.49333333333333V7.079999999999998H40.91V3.669999999999998Q40.91 1.543333333333333 42.08333333333333 0.20500000000000007Q43.25666666666667 -1.1333333333333329 45.75 -1.1333333333333329H52.129999999999995V2.0933333333333337H44.906666666666666V7.079999999999998H52.129999999999995V10.306666666666667H44.906666666666666V22.773333333333333H51.28666666666666V26.0H34.86Z"/>
  <path fill="#F7F6F2" d="M21.03666666666667 52.44Q17.956666666666667 52.44 15.738333333333333 51.45Q13.52 50.46 12.163333333333334 48.81L14.620000000000001 46.61Q15.866666666666667 47.96666666666667 17.425 48.68166666666667Q18.983333333333334 49.39666666666667 21.11 49.39666666666667Q23.053333333333335 49.39666666666667 24.245 48.736666666666665Q25.436666666666667 48.07666666666667 25.436666666666667 46.68333333333334Q25.436666666666667 46.096666666666664 25.21666666666667 45.69333333333333Q24.996666666666666 45.29 24.593333333333334 45.03333333333333Q24.189999999999998 44.776666666666664 23.65833333333333 44.629999999999995Q23.126666666666665 44.483333333333334 22.54 44.41L19.53333333333333 43.93333333333334Q18.433333333333334 43.78666666666667 17.296666666666667 43.45666666666666Q16.16 43.126666666666665 15.261666666666667 42.52166666666666Q14.363333333333333 41.916666666666664 13.795 40.96333333333333Q13.226666666666667 40.01 13.226666666666667 38.54333333333334Q13.226666666666667 35.64666666666667 15.445 34.14333333333333Q17.663333333333334 32.64 21.293333333333333 32.64Q23.933333333333334 32.64 25.858333333333334 33.428333333333335Q27.783333333333335 34.21666666666667 29.066666666666666 35.61L26.830000000000002 37.95666666666666Q26.096666666666668 37.11333333333333 24.740000000000002 36.39833333333333Q23.383333333333333 35.68333333333334 21.14666666666667 35.68333333333334Q17.15 35.68333333333334 17.15 38.21333333333333Q17.15 39.42333333333333 18.011666666666667 39.88166666666667Q18.873333333333335 40.34 20.046666666666667 40.486666666666665L23.053333333333335 40.96333333333333Q24.189999999999998 41.14666666666667 25.30833333333333 41.44Q26.426666666666666 41.733333333333334 27.325 42.33833333333334Q28.223333333333333 42.943333333333335 28.791666666666664 43.89666666666667Q29.36 44.85 29.36 46.31666666666666Q29.36 49.17666666666667 27.141666666666666 50.80833333333334Q24.923333333333332 52.44 21.03666666666667 52.44Z M33.61333333333333 52.0V33.08H37.02333333333333V35.53666666666666H37.20666666666666Q37.64666666666667 34.32666666666667 38.471666666666664 33.483333333333334Q39.29666666666667 32.64 40.836666666666666 32.64Q42.34 32.64 43.165000000000006 33.465Q43.99 34.29 44.21 35.72H44.35666666666667Q44.87 34.43666666666667 45.78666666666666 33.538333333333334Q46.70333333333333 32.64 48.42666666666666 32.64Q50.626666666666665 32.64 51.48833333333333 34.18Q52.35 35.72 52.35 38.69V52.0H48.94V39.20333333333333Q48.94 37.22333333333333 48.46333333333333 36.471666666666664Q47.986666666666665 35.72 46.92333333333333 35.72Q45.97 35.72 45.32833333333333 36.361666666666665Q44.68666666666667 37.00333333333333 44.68666666666667 38.28666666666667V52.0H41.27666666666667V39.20333333333333Q41.27666666666667 37.22333333333333 40.818333333333335 36.471666666666664Q40.36 35.72 39.29666666666667 35.72Q38.306666666666665 35.72 37.665 36.361666666666665Q37.02333333333333 37.00333333333333 37.02333333333333 38.28666666666667V52.0Z"/>
</svg>
